<svg viewBox="0 0 1024 1024" fill="currentColor" width="20" height="20" ><g><path d="M474.1731 112c-18.9701 0-36.1608 11.1725-43.8642 28.5082L280.1358 478.456A48 48 0 0 0 276 497.9478V911c0 26.5097 21.4903 48.0048 48 48.0048h436.252-.5357c61.3753.6784 113.8776-43.9592 123.0806-104.6476l51.798-337.8707c5.4294-35.7783-5.103-72.0607-28.7977-99.3154l-.7141-.8142c-23.4316-26.4793-57.1259-41.6043-92.483-41.513l-.6771.0041H634.802l.001-102.1987C634.803 183.9272 562.8878 112 474.173 112zm28.3009 102.514.506.2474c21.2353 10.5943 35.823 32.5364 35.823 57.8879v150.199c0 26.5097 21.4903 48 48 48l225.5324-.0008.2727-.0023c7.9422-.0903 15.5267 3.3143 20.7399 9.311a27.109 27.109 0 0 1 6.3445 21.855l-51.7987 337.8756c-2.0178 13.3058-13.3664 23.0703-26.6996 23.1177H372V508.131l130.474-293.617z"></path><path d="m223.832 445.012.6254.0078c-68.3137-1.209-126.8272 52.9355-136.0247 120.9665A48 48 0 0 0 88 572.4172v263.3314a48 48 0 0 0 .4327 6.431l.2898 2.0287c9.9457 66.0991 66.8558 114.9731 133.686 114.7918l1.2675-.0141 100.324.0002c26.5097 0 48-21.4903 48-48v-417.974l-.0064-.7937c-.424-26.1436-21.749-47.2062-47.9936-47.2062l-100.168-.0003zm-2.1548 95.9942.5068-.0062 1.424.0123L276 541.012v321.974l-52.392.0002-.4247.0019-1.0148.012c-18.4628.0497-34.3058-12.9072-38.0996-30.7884L184 831.879V576.243l.1115-.5453c4.0676-19.3121 20.8022-34.351 37.5657-34.6915z"></path></g></svg>