<svg t="1692533464183" class="icon" viewBox="0 0 1024 1024" version="1.1" xmlns="http://www.w3.org/2000/svg" p-id="1921" width="200" height="200"><path d="M882.94976531 322.26503451c-0.91522626-1.83045253-1.83045253-4.5761313-2.74567877-6.40658385-0.91522626-0.91522626-0.91522626-2.74567878-1.83045253-3.66090502-1.83045253-3.66090506-3.66090506-7.3218101-5.49135759-10.0674889 0-0.91522626-0.91522626-0.91522626-0.91522626-1.8304525-1.83045253-3.66090506-4.5761313-7.3218101-7.32181008-10.98271514-0.91522626-1.83045253-2.74567878-2.74567878-3.66090505-4.57613132-1.83045253-1.83045253-2.74567878-3.66090506-4.57613129-5.49135755l-5.4913576-5.49135758-1.83045251-1.83045252c-0.91522626-0.91522626-1.83045253-0.91522626-2.7456788-1.83045252-1.83045253-0.91522626-2.74567878-2.74567878-4.57613129-3.66090506-3.66090506-2.74567878-6.40658382-4.5761313-10.06748888-6.40658382h-0.91522628c-0.91522626 0-0.91522626-0.91522626-1.83045251-0.91522626-2.74567878-1.83045253-6.40658382-2.74567878-9.15226263-4.5761313-0.91522626-0.91522626-2.74567878-0.91522626-3.66090503-1.83045255-3.66090506-1.83045253-7.3218101-2.74567878-10.98271515-3.66090505-0.91522626 0-1.83045253 0-2.74567878-0.91522625-3.66090506-0.91522626-6.40658382-1.83045253-10.06748888-1.83045252-0.91522626 0-2.74567878 0-3.66090504-0.91522626-4.5761313-0.91522626-8.23703635-0.91522626-12.81316768-0.91522626h-47.5917656v-43.0156343h-184.87570486v43.0156343h-118.97941403c-6.40658382-32.03291916-33.86337166-54.91357571-66.81151711-54.91357571-32.94814542 0-60.40493329 22.88065653-66.8115171 54.91357571h-36.60905048c-61.32015954 0-110.74237767 49.42221811-110.74237767 110.74237766 0 3.66090506 3.66090506 7.3218101 7.32181009 7.32181009v10.06748887c-3.66090506 0-7.3218101 3.66090506-7.32181009 7.3218101v30.20246664c0 3.66090506 3.66090506 7.3218101 7.32181009 7.32181008v27.45678787c-3.66090506 0-7.3218101 3.66090506-7.32181009 7.32181009v43.01563429c0 3.66090506 3.66090506 7.3218101 7.32181009 7.3218101v29.28724037c-3.66090506 0-7.3218101 3.66090506-7.32181009 7.32181012v182.13002605c0 3.66090506 0 7.3218101 0.91522627 10.98271516v2.74567877c0 2.74567878 0.91522626 4.5761313 0.91522626 7.3218101 0 0.91522626 0.91522626 2.74567878 0.91522627 3.66090506 0.91522626 1.83045253 0.91522626 4.5761313 1.83045253 6.40658382 0 0.91522626 0.91522626 2.74567878 0.91522626 3.66090505 0.91522626 1.83045253 1.83045253 4.5761313 1.8304525 6.40658383 0.91522626 0.91522626 0.91522626 2.74567878 1.83045252 3.66090505 0.91522626 1.83045253 1.83045253 3.66090506 2.74567879 6.40658384 0.91522626 0.91522626 0.91522626 1.83045253 1.83045253 2.74567877 0.91522626 1.83045253 2.74567878 3.66090506 3.66090504 6.40658384 0.91522626 0.91522626 0.91522626 1.83045253 1.83045253 2.74567879 1.83045253 1.83045253 2.74567878 3.66090506 4.5761313 6.40658383 0.91522626 0.91522626 0.91522626 1.83045253 1.83045253 1.83045251 1.83045253 1.83045253 3.66090506 3.66090506 5.49135758 6.40658385l1.83045251 1.8304525 6.40658383 6.40658383 0.91522627 0.91522627c10.98271516 9.15226261 23.79588279 15.55884645 37.52427674 20.13497777h0.91522628c2.74567878 0.91522626 6.40658382 1.83045253 10.06748886 2.7456788h0.91522625c7.3218101 8.23703635 16.4740727 15.55884645 26.54156158 21.05020401 4.5761313 0.91522626 8.23703635 0.91522626 12.81316767 0.91522626h532.66168433c57.6592545 0 105.2510201-45.76131308 105.25102009-101.59011505V389.99177786c-0.91522626-25.62633533-10.98271516-49.42221811-27.45678784-67.72674335z" fill="#C4ADAD" p-id="1922"></path><path d="M103.17699031 346.97614356C103.17699031 289.3168891 149.85352966 243.55557599 206.59755792 243.55557599h298.3637613v-43.01563429h170.23208468V243.55557599h54.9135757c18.30452524 0 35.6938242 4.5761313 51.25267067 13.72839392 31.1176929 17.38929897 53.08312319 51.25267068 53.08312316 89.69217365v365.17527844c0 56.74402823-46.67653934 103.42056757-103.42056758 103.42056758H206.59755792c-4.5761313 0-8.23703635 0-12.81316768-0.91522628-51.25267068-6.40658382-90.60739991-50.33744441-90.60739993-102.5053413" fill="#FFFFFF" p-id="1923"></path><path d="M729.19175333 821.97857342H206.59755792c-4.5761313 0-9.15226261 0-13.72839397-0.91522627-54.91357571-6.40658382-97.01398373-53.99834945-97.01398371-109.82715142 0-3.66090506 2.74567878-7.3218101 7.32181007-7.32181008s7.3218101 2.74567878 7.3218101 7.32181008c0 48.50699189 36.60905046 89.69217365 85.11604234 96.09875748 3.66090506 0.91522626 7.3218101 0.91522626 11.89794141 0.91522627h522.59419544c53.08312319 0 97.01398373-43.01563429 97.01398375-97.01398375V346.97614356c0-34.77859794-19.21975149-66.8115171-49.42221815-84.20081605-14.64362017-8.23703635-31.1176929-12.81316766-47.5917656-12.81316768h-61.32015954V206.94652554H511.36790306v43.01563429H206.59755792c-53.08312319 0-97.01398373 43.01563429-97.01398376 97.01398373 0 3.66090506-2.74567878 7.3218101-7.32181011 7.32181013s-7.3218101-2.74567878-7.3218101-7.32181013c0-61.32015954 49.42221811-110.74237767 110.74237768-110.74237766H496.72428287v-43.01563428h183.96047861v43.01563428h47.5917656c19.21975149 0 38.43950299 4.5761313 53.99834946 14.6436202 34.77859794 19.21975149 55.82880198 56.74402823 55.82880193 96.09875746v365.17527844c1.83045253 60.40493329-47.59176558 109.8271514-108.91192514 109.82715142z" fill="#961919" p-id="1924"></path><path d="M688.92179784 290.23211535l116.23373522 0.91522626c4.5761313 0 8.23703635 0 12.81316766 0.91522627 32.03291916 17.38929897 53.99834945 50.33744441 53.99834944 88.77694739v358.76869461c0 55.82880198-47.59176558 101.59011504-105.25102007 101.59011504H233.13911948c-4.5761313 0-9.15226261 0-12.81316765-0.91522627-32.03291916-17.38929897-53.08312319-51.25267068-53.0831232-88.77694738V392.73745666c0-55.82880198 47.59176558-101.59011504 105.2510201-101.59011505h295.61808254l-0.91522628-37.5242767H688.92179784v36.60905044z" fill="#B7E2F9" p-id="1925"></path><path d="M832.6123209 351.5522749v359.68392083c0 55.82880198-47.59176558 101.59011504-105.25102009 101.59011506h-52.16789691c49.42221811-10.06748889 86.94649486-52.16789693 86.94649484-102.5053413V341.48478602c0-31.1176929-14.64362017-59.48970703-37.52427672-78.70945851h42.10040807c4.5761313 0 9.15226261 0 12.81316763 0.91522627 32.03291916 17.38929897 53.08312319 50.33744441 53.08312318 87.86172112z" fill="#54D8FC" p-id="1926"></path><path d="M729.19175333 821.97857342H206.59755792c-61.32015954 0-110.74237767-49.42221811-110.74237768-110.74237769v-182.13002607c0-3.66090506 2.74567878-7.3218101 7.32181007-7.32181009s7.3218101 2.74567878 7.3218101 7.32181009v182.13002607c0 53.08312319 43.01563429 97.01398373 97.01398375 97.01398375h522.59419544c6.40658382 0 12.81316766-0.91522626 19.2197515-1.83045251 44.84608682-9.15226261 76.87900598-49.42221811 76.87900598-95.18353124V346.97614356c0-28.37201411-11.8979414-54.91357571-32.94814542-73.21810091-17.38929897-15.55884645-40.26995552-23.79588279-63.15061206-23.79588282h-54.9135757c-3.66090506 0-7.3218101-2.74567878-7.3218101-7.3218101s2.74567878-7.3218101 7.3218101-7.32181009h54.9135757c26.54156159 0 52.16789693 10.06748889 72.30287468 27.45678787 23.79588279 21.05020402 38.43950299 51.25267068 38.439503 83.28558981V710.32096949c0 52.16789693-37.52427671 97.92921001-87.86172113 107.99669888-8.23703635 2.74567878-16.4740727 3.66090506-23.79588282 3.66090505zM103.17699031 492.4971192c-3.66090506 0-7.3218101-2.74567878-7.32181007-7.3218101v-43.01563432c0-3.66090506 2.74567878-7.3218101 7.32181007-7.32181009s7.3218101 2.74567878 7.3218101 7.32181009v43.01563432c-0.91522626 3.66090506-3.66090506 7.3218101-7.3218101 7.3218101zM103.17699031 408.29630312c-3.66090506 0-7.3218101-2.74567878-7.32181007-7.3218101v-30.20246663c0-3.66090506 2.74567878-7.3218101 7.32181007-7.32181009s7.3218101 2.74567878 7.3218101 7.32181009v30.20246663c-0.91522626 4.5761313-3.66090506 7.3218101-7.3218101 7.3218101zM103.17699031 353.38272744c-3.66090506 0-7.3218101-2.74567878-7.32181007-7.32181012 0-61.32015954 49.42221811-110.74237767 110.74237768-110.74237768h298.3637613c3.66090506 0 7.3218101 2.74567878 7.32181009 7.32181009s-2.74567878 7.3218101-7.32181009 7.3218101H206.59755792c-53.08312319 0-97.01398373 43.01563429-97.01398376 97.01398373 0 3.66090506-2.74567878 6.40658382-6.40658385 6.40658388z" fill="#961919" p-id="1927"></path><path d="M709.97200184 723.13413716l-38.43950301 0.91522627c-1.83045253 0-3.66090506 1.83045253-2.74567877 3.660905l1.8304525 37.52427676v0.91522626c0 3.66090506-5.49135757 4.5761313-6.40658381 0.91522626l-12.81316765-35.6938242v-0.91522627c-0.91522626-0.91522626-2.74567878-1.83045253-3.66090505-0.91522627l-32.03291917 12.81316767-2.74567878 0.91522626c-3.66090506 0.91522626-6.40658382-3.66090506-2.74567879-5.49135755l30.20246664-22.88065656c1.83045253-0.91522626 1.83045253-2.74567878 0.91522625-4.5761313l-23.79588278-29.28724039c-2.74567878-2.74567878 0.91522626-6.40658382 4.57613128-4.5761313l1.83045254 1.83045252 29.28724037 20.13497777c1.83045253 0.91522626 3.66090506 0.91522626 4.5761313-0.91522628v-0.91522625l20.13497777-31.11769288c1.83045253-2.74567878 5.49135757-0.91522626 6.40658384 1.8304525v0.91522626l-10.98271514 36.60905047c-0.91522626 1.83045253 0.91522626 3.66090506 2.74567878 3.66090505l36.60905047 10.06748887c0.91522626-0.91522626 0.91522626 4.5761313-2.74567879 4.57613133z" fill="#FFFFFF" p-id="1928"></path><path d="M666.95636756 772.55635529c-2.74567878 0-5.49135757-1.83045253-6.40658386-4.57613132l-12.81316765-35.6938242-34.77859795 13.72839393c-3.66090506 0.91522626-6.40658382 0-8.23703635-2.7456788-1.83045253-2.74567878-0.91522626-6.40658382 1.83045253-8.23703636l30.20246662-22.88065654-23.7958828-29.28724036c-1.83045253-2.74567878-1.83045253-6.40658382 0-9.15226261 2.74567878-2.74567878 5.49135757-2.74567878 8.23703635-0.91522628l31.1176929 21.96543028 20.13497775-32.03291915c1.83045253-2.74567878 4.5761313-3.66090506 7.32181008-2.74567879 2.74567878 0.91522626 4.5761313 2.74567878 5.49135761 6.40658383v2.74567878l-10.98271517 36.60905046 36.60905048 9.15226263c3.66090506 0.91522626 5.49135757 3.66090506 4.57613131 7.32181008 0 3.66090506-2.74567878 5.49135757-6.40658383 5.49135756l-38.43950302 0.91522629 2.74567882 37.52427673c0 3.66090506-1.83045253 6.40658382-5.49135758 7.3218101 0.91522626-0.91522626 0-0.91522626-0.91522624-0.91522626z m-18.30452525-46.67653936c1.83045253 0 4.5761313 0.91522626 5.49135757 2.74567879l0.91522624 1.83045252 12.81316768 35.69382421-2.7456788-37.52427673c0-1.83045253 0-3.66090506 1.83045256-4.57613129 0.91522626-0.91522626 2.74567878-1.83045253 4.57613127-1.83045256l38.43950301-0.91522626-36.60905046-9.15226261c-1.83045253-0.91522626-3.66090506-1.83045253-4.57613132-3.66090504-0.91522626-1.83045253-0.91522626-3.66090506-0.91522626-5.49135759l10.98271517-36.60905045-20.13497778 32.03291917c-0.91522626 1.83045253-2.74567878 2.74567878-4.57613131 3.66090502-1.83045253 0-3.66090506 0-5.49135757-0.91522625l-31.11769289-21.96543026 24.71110905 29.28724036c0.91522626 1.83045253 1.83045253 3.66090506 1.83045253 4.5761313 0 1.83045253-0.91522626 3.66090506-2.7456788 4.5761313l-30.20246661 22.88065657 2.74567877-1.83045252 32.03291916-12.81316768h2.74567879z m61.32015953-2.74567877v-3.66090508 3.66090508z" fill="#961919" p-id="1929"></path><path d="M709.97200184 723.13413716l-38.43950301 0.91522627c-1.83045253 0-3.66090506 1.83045253-2.74567877 3.660905l1.8304525 37.52427676-11.89794137-33.86337168c-0.91522626-1.83045253-2.74567878-2.74567878-4.57613131-1.83045254l-2.74567878 0.91522627c-0.91522626-0.91522626-2.74567878-1.83045253-3.66090505-0.91522627l-32.03291917 12.81316767c-0.91522626-0.91522626-0.91522626-2.74567878 0.91522627-4.57613129l30.20246663-22.88065656c1.83045253-0.91522626 1.83045253-2.74567878 0.91522627-4.5761313l-23.79588281-29.28724039c-0.91522626-0.91522626-0.91522626-1.83045253-0.91522626-2.74567878l29.28724037 20.13497777c1.83045253 0.91522626 3.66090506 0.91522626 4.5761313-0.91522628v-0.91522625l1.83045254 1.83045253c1.83045253 0.91522626 3.66090506 0.91522626 4.5761313-0.91522628l19.21975149-30.20246663v0.91522626l-10.98271515 36.60905047c-0.91522626 1.83045253 0.91522626 3.66090506 2.74567879 3.66090505l36.60905048 10.06748887c2.74567878-0.91522626 2.74567878 4.5761313-0.91522626 4.57613133z" fill="#F9F18F" p-id="1930"></path><path d="M709.97200184 723.13413716l-38.43950301 0.91522627c-1.83045253 0-3.66090506 1.83045253-2.74567877 3.660905l1.8304525 37.52427676-8.23703634-23.7958828-0.91522625-13.72839396c0-1.83045253 0.91522626-3.66090506 2.74567878-3.660905l38.439503-0.91522627c3.66090506 0 4.5761313-5.49135757 0.91522626-6.40658384l-36.60905045-10.06748888c-1.83045253-0.91522626-2.74567878-2.74567878-2.74567881-3.66090507l5.49135756-18.30452522 12.81316767-20.13497775v0.91522628l-10.98271515 36.60905043c-0.91522626 1.83045253 0.91522626 3.66090506 2.74567879 3.66090505l36.60905048 10.06748888c2.74567878 1.83045253 2.74567878 7.3218101-0.91522626 7.32181012z" fill="#F4DD58" p-id="1931"></path><path d="M666.95636756 772.55635529c-2.74567878 0-5.49135757-1.83045253-6.40658386-4.57613132l-12.81316765-35.6938242-34.77859795 13.72839393c-3.66090506 0.91522626-6.40658382 0-8.23703635-2.7456788-1.83045253-2.74567878-0.91522626-6.40658382 1.83045253-8.23703636l30.20246662-22.88065654-23.7958828-29.28724036c-1.83045253-2.74567878-1.83045253-6.40658382 0-9.15226261 2.74567878-2.74567878 5.49135757-2.74567878 8.23703635-0.91522628l31.1176929 21.96543028 20.13497775-32.03291915c1.83045253-2.74567878 5.49135757-3.66090506 8.23703638-2.74567879 2.74567878 1.83045253 4.5761313 4.5761313 3.66090504 8.23703635l-10.98271514 36.60905047 36.60905046 9.15226261c3.66090506 0.91522626 5.49135757 3.66090506 4.57613131 7.32181009 0 3.66090506-2.74567878 5.49135757-6.40658381 5.49135756l-38.43950303 0.91522626 2.74567879 37.52427676c0 3.66090506-1.83045253 6.40658382-5.49135754 7.3218101 1.83045253 0 0.91522626 0 0 0z m-18.30452525-46.67653936c1.83045253 0 4.5761313 0.91522626 5.49135757 2.74567879l0.91522624 1.83045252 12.81316768 35.69382421-2.7456788-37.52427673c0-1.83045253 0-3.66090506 1.83045256-4.57613129 0.91522626-0.91522626 2.74567878-1.83045253 4.57613127-1.83045256l38.43950301-0.91522626-36.60905046-9.15226261c-1.83045253-0.91522626-3.66090506-1.83045253-4.57613132-3.66090504-0.91522626-1.83045253-0.91522626-3.66090506-0.91522626-5.49135759l10.98271517-36.60905045-20.13497778 32.03291917c-0.91522626 1.83045253-2.74567878 2.74567878-4.57613131 3.66090502-1.83045253 0-3.66090506 0-5.49135757-0.91522625l-31.11769289-21.96543026 24.71110905 29.28724036c0.91522626 1.83045253 1.83045253 3.66090506 1.83045253 4.5761313 0 1.83045253-0.91522626 3.66090506-2.7456788 4.5761313l-30.20246661 22.88065657 9.1522626-3.66090507 25.62633533-10.06748889c0.91522626-0.91522626 1.83045253-0.91522626 2.74567879-0.91522624z m61.32015953-2.74567877v-3.66090508 3.66090508z" fill="#961919" p-id="1932"></path><path d="M370.42305875 243.55557599H249.6131922c2.74567878-31.1176929 29.28724036-54.91357571 60.40493328-54.91357568 31.1176929 0 56.74402823 23.79588279 60.40493327 54.91357568z" fill="#F9F18F" p-id="1933"></path><path d="M377.74486882 249.96215983H241.37615584l0.91522626-7.3218101c3.66090506-34.77859794 32.03291916-61.32015954 67.72674338-61.32015951 34.77859794 0 64.06583831 26.54156159 67.72674334 61.32015951v7.3218101z m-119.89464027-13.72839393h104.33579385c-5.49135757-23.79588279-27.45678784-41.18518177-52.16789692-41.18518177s-46.67653934 17.38929897-52.16789693 41.18518177zM480.25021014 670.05101397c-84.20081609 0-152.84278572-68.64196964-152.8427857-152.84278571S396.0493941 364.36544256 480.25021014 364.36544256s152.84278572 68.64196964 152.84278572 152.8427857-68.64196964 152.84278572-152.84278572 152.84278571z m0-291.95717749c-76.87900598 0-139.11439177 62.2353858-139.11439178 139.11439178s62.2353858 139.11439177 139.11439178 139.11439179 139.11439177-62.2353858 139.11439181-139.11439179-62.2353858-139.11439177-139.11439181-139.11439178zM204.76710536 688.35553919h-9.15226261c-10.98271516 0-21.05020402-9.15226261-21.05020401-21.05020401V378.09383648c0-10.98271516 9.15226261-21.05020402 21.05020401-21.05020404h9.15226261c10.98271516 0 21.05020402 9.15226261 21.05020402 21.05020404v289.2114987c0 10.98271516-10.06748889 21.05020402-21.05020402 21.05020401z m-9.15226261-316.66828654c-3.66090506 0-7.3218101 2.74567878-7.3218101 7.32181011v289.21149868c0 3.66090506 2.74567878 7.3218101 7.3218101 7.3218101h9.15226261c3.66090506 0 7.3218101-2.74567878 7.32181011-7.3218101V378.09383648c0-3.66090506-2.74567878-7.3218101-7.32181011-7.32181009h-9.15226261zM748.41150482 396.39836172h-74.1333272v-74.13332721h74.1333272v74.13332721z m-60.40493326-13.72839392h46.67653934V335.07820216h-46.67653934v47.59176564z" fill="#961919" p-id="1934"></path><path d="M595.56871913 517.20822826c0 54.91357571-39.35472924 101.59011504-90.60739991 112.57283018-8.23703635 1.83045253-16.4740727 2.74567878-24.71110908 2.7456788-13.72839391 0-27.45678784-2.74567878-39.35472925-7.3218101-44.84608682-15.55884645-75.96377974-58.57448076-75.96377972-108.91192514 0-64.06583831 51.25267068-115.31850898 115.31850897-115.31850898 19.21975149 0 38.43950299 4.5761313 53.99834945 13.72839391 2.74567878 1.83045253 6.40658382 3.66090506 9.15226263 5.49135757 32.03291916 21.05020402 52.16789693 56.74402823 52.16789691 97.01398376z" fill="#FFFFFF" p-id="1935"></path><path d="M480.25021014 638.93332108c-14.64362017 0-28.37201411-2.74567878-42.10040803-7.32181012-48.50699189-17.38929897-80.53991103-63.15061206-80.53991103-115.31850896 0-67.72674338 54.91357571-122.64031907 122.64031906-122.64031906 20.13497775 0 40.26995552 4.5761313 57.65925449 14.64362018 3.66090506 1.83045253 6.40658382 3.66090506 10.06748887 5.49135757 34.77859794 22.88065653 54.91357571 61.32015954 54.91357573 102.50534131 0 57.6592545-40.26995552 107.99669887-96.09875749 119.89464031-9.15226261 1.83045253-17.38929897 2.74567878-26.5415616 2.74567877z m0-230.63701796c-59.48970703 0-108.91192514 48.50699189-108.91192513 108.91192514 0 45.76131308 28.37201411 86.94649486 71.38764841 102.5053413 19.21975149 7.3218101 41.18518177 8.23703635 60.40493329 3.66090505 49.42221811-10.98271516 86.03126862-54.91357571 86.0312686-106.16624635 0-36.60905046-18.30452524-70.47242217-48.50699188-90.6073999-2.74567878-1.83045253-5.49135757-3.66090506-9.15226263-5.49135759-15.55884645-8.23703635-33.86337166-12.81316766-51.25267066-12.81316765z" fill="#961919" p-id="1936"></path><path d="M614.78847063 526.36049087c0 64.06583831-51.25267068 115.31850898-115.31850896 115.31850899-13.72839391 0-27.45678784-2.74567878-39.35472929-7.32181008-31.1176929-21.05020402-52.16789693-55.82880198-52.16789691-96.09875753 0-64.06583831 51.25267068-115.31850898 115.31850897-115.31850896 13.72839391 0 27.45678784 2.74567878 39.35472925 7.32181009 31.1176929 20.13497775 52.16789693 55.82880198 52.16789694 96.09875749z" fill="#F9F18F" p-id="1937"></path><path d="M595.56871913 517.20822826c0 64.06583831-51.25267068 115.31850898-115.31850899 115.31850898-8.23703635 0-16.4740727-0.91522626-23.79588279-2.7456788 52.16789693-10.98271516 90.60739991-57.6592545 90.60739989-112.57283018 0-40.26995552-21.05020402-75.96377974-52.1678969-96.09875749-2.74567878-1.83045253-6.40658382-3.66090506-9.15226259-5.49135756 6.40658382-0.91522626 11.8979414-1.83045253 18.30452522-1.83045252 13.72839391 0 27.45678784 2.74567878 39.35472925 7.32181008 32.03291916 20.13497775 52.16789693 55.82880198 52.16789691 96.09875749z" fill="#FFD527" p-id="1938"></path><path d="M480.25021014 638.93332108c-67.72674338 0-122.64031907-54.91357571-122.64031906-122.64031908s54.91357571-122.64031907 122.64031906-122.64031906 122.64031907 54.91357571 122.64031909 122.64031906-54.91357571 122.64031907-122.64031909 122.64031908z m0-230.63701796c-59.48970703 0-108.91192514 48.50699189-108.91192513 108.91192514s48.50699189 108.91192514 108.91192513 108.91192514 108.91192514-48.50699189 108.91192517-108.91192514S539.73991715 408.29630312 480.25021014 408.29630312z" fill="#961919" p-id="1939"></path></svg>